<mxfile host="app.diagrams.net" modified="2023-11-01T07:59:34.366Z" agent="Mozilla/5.0 (Windows NT 10.0; Win64; x64) AppleWebKit/537.36 (KHTML, like Gecko) Chrome/116.0.0.0 Whale/3.22.205.26 Safari/537.36" etag="mTaW3Vp7WqTQq8TH_lAi" version="22.0.8" type="github">
  <diagram name="Page-1" id="10a91c8b-09ff-31b1-d368-03940ed4cc9e">
    <mxGraphModel dx="1388" dy="1615" grid="1" gridSize="10" guides="1" tooltips="1" connect="1" arrows="1" fold="1" page="1" pageScale="1" pageWidth="1100" pageHeight="850" background="none" math="0" shadow="0">
      <root>
        <mxCell id="0" />
        <mxCell id="1" parent="0" />
        <mxCell id="EsVAypqveaLoAmLeQ6aI-1" value="공개 요청 현황" style="swimlane;whiteSpace=wrap;html=1;" vertex="1" parent="1">
          <mxGeometry x="20" y="-810" width="1060" height="260" as="geometry" />
        </mxCell>
        <mxCell id="EsVAypqveaLoAmLeQ6aI-46" style="edgeStyle=orthogonalEdgeStyle;rounded=0;orthogonalLoop=1;jettySize=auto;html=1;exitX=1;exitY=0.5;exitDx=0;exitDy=0;" edge="1" parent="EsVAypqveaLoAmLeQ6aI-1" source="Mb8Y5IPRG79mkYF5UTKG-5" target="EsVAypqveaLoAmLeQ6aI-45">
          <mxGeometry relative="1" as="geometry" />
        </mxCell>
        <mxCell id="Mb8Y5IPRG79mkYF5UTKG-5" value="요청하신(서비스) 의뢰 내역을&amp;nbsp;&lt;br&gt;보여드리겠습니다." style="shape=hexagon;perimeter=hexagonPerimeter2;whiteSpace=wrap;html=1;fixedSize=1;" parent="EsVAypqveaLoAmLeQ6aI-1" vertex="1">
          <mxGeometry x="340" y="30" width="190" height="60" as="geometry" />
        </mxCell>
        <mxCell id="EsVAypqveaLoAmLeQ6aI-36" style="edgeStyle=orthogonalEdgeStyle;rounded=0;orthogonalLoop=1;jettySize=auto;html=1;exitX=1;exitY=0.5;exitDx=0;exitDy=0;entryX=0;entryY=0.5;entryDx=0;entryDy=0;" edge="1" parent="EsVAypqveaLoAmLeQ6aI-1" source="Mb8Y5IPRG79mkYF5UTKG-2" target="EsVAypqveaLoAmLeQ6aI-2">
          <mxGeometry relative="1" as="geometry" />
        </mxCell>
        <mxCell id="EsVAypqveaLoAmLeQ6aI-49" value="Entity 충족 안됨" style="edgeLabel;html=1;align=center;verticalAlign=middle;resizable=0;points=[];" vertex="1" connectable="0" parent="EsVAypqveaLoAmLeQ6aI-36">
          <mxGeometry x="-0.06" relative="1" as="geometry">
            <mxPoint x="3" y="10" as="offset" />
          </mxGeometry>
        </mxCell>
        <mxCell id="Mb8Y5IPRG79mkYF5UTKG-2" value="공개 요청 현황 보여줘" style="whiteSpace=wrap;html=1;rounded=1;shadow=1;labelBackgroundColor=none;strokeWidth=1;fontFamily=Verdana;fontSize=12;align=center;fontStyle=1" parent="EsVAypqveaLoAmLeQ6aI-1" vertex="1">
          <mxGeometry x="100" y="150" width="140" height="60" as="geometry" />
        </mxCell>
        <mxCell id="EsVAypqveaLoAmLeQ6aI-38" style="edgeStyle=orthogonalEdgeStyle;rounded=0;orthogonalLoop=1;jettySize=auto;html=1;exitX=1;exitY=0.5;exitDx=0;exitDy=0;entryX=0;entryY=0.5;entryDx=0;entryDy=0;" edge="1" parent="EsVAypqveaLoAmLeQ6aI-1" source="EsVAypqveaLoAmLeQ6aI-2" target="EsVAypqveaLoAmLeQ6aI-5">
          <mxGeometry relative="1" as="geometry" />
        </mxCell>
        <mxCell id="EsVAypqveaLoAmLeQ6aI-2" value="어떤 공개요청 현황을 보고&lt;br&gt;싶으신가요?" style="shape=hexagon;perimeter=hexagonPerimeter2;whiteSpace=wrap;html=1;fixedSize=1;" vertex="1" parent="EsVAypqveaLoAmLeQ6aI-1">
          <mxGeometry x="340" y="150" width="190" height="60" as="geometry" />
        </mxCell>
        <mxCell id="EsVAypqveaLoAmLeQ6aI-39" style="edgeStyle=orthogonalEdgeStyle;rounded=0;orthogonalLoop=1;jettySize=auto;html=1;exitX=1;exitY=0.5;exitDx=0;exitDy=0;entryX=0;entryY=0.5;entryDx=0;entryDy=0;" edge="1" parent="EsVAypqveaLoAmLeQ6aI-1" source="EsVAypqveaLoAmLeQ6aI-5" target="EsVAypqveaLoAmLeQ6aI-10">
          <mxGeometry relative="1" as="geometry" />
        </mxCell>
        <mxCell id="EsVAypqveaLoAmLeQ6aI-5" value="&lt;ol&gt;&lt;li&gt;원료 소재&lt;/li&gt;&lt;li&gt;시설장비&lt;/li&gt;&lt;li&gt;전문 코디네이션&lt;/li&gt;&lt;li&gt;인증분석&lt;/li&gt;&lt;li&gt;교육 지원(제거)&lt;/li&gt;&lt;/ol&gt;" style="text;strokeColor=none;fillColor=none;html=1;whiteSpace=wrap;verticalAlign=middle;overflow=hidden;align=left;spacing=0;spacingLeft=-21;" vertex="1" parent="EsVAypqveaLoAmLeQ6aI-1">
          <mxGeometry x="560" y="135" width="120" height="90" as="geometry" />
        </mxCell>
        <mxCell id="EsVAypqveaLoAmLeQ6aI-37" style="edgeStyle=orthogonalEdgeStyle;rounded=0;orthogonalLoop=1;jettySize=auto;html=1;exitX=1;exitY=0.5;exitDx=0;exitDy=0;entryX=0;entryY=0.5;entryDx=0;entryDy=0;" edge="1" parent="EsVAypqveaLoAmLeQ6aI-1" source="EsVAypqveaLoAmLeQ6aI-9" target="Mb8Y5IPRG79mkYF5UTKG-5">
          <mxGeometry relative="1" as="geometry" />
        </mxCell>
        <mxCell id="EsVAypqveaLoAmLeQ6aI-9" value="(서비스) 공개 요청 현황 보여줘" style="whiteSpace=wrap;html=1;rounded=1;shadow=1;labelBackgroundColor=none;strokeWidth=1;fontFamily=Verdana;fontSize=12;align=center;fontStyle=1" vertex="1" parent="EsVAypqveaLoAmLeQ6aI-1">
          <mxGeometry x="100" y="30" width="140" height="60" as="geometry" />
        </mxCell>
        <mxCell id="EsVAypqveaLoAmLeQ6aI-10" value="요청하신(서비스) 의뢰 내역을&amp;nbsp;&lt;br&gt;보여드리겠습니다." style="shape=hexagon;perimeter=hexagonPerimeter2;whiteSpace=wrap;html=1;fixedSize=1;" vertex="1" parent="EsVAypqveaLoAmLeQ6aI-1">
          <mxGeometry x="770" y="150" width="190" height="60" as="geometry" />
        </mxCell>
        <mxCell id="EsVAypqveaLoAmLeQ6aI-45" value="&lt;ul&gt;&lt;li&gt;(서비스)공개요청현황&lt;/li&gt;&lt;/ul&gt;" style="text;strokeColor=none;fillColor=none;html=1;whiteSpace=wrap;verticalAlign=middle;overflow=hidden;spacingLeft=-22;" vertex="1" parent="EsVAypqveaLoAmLeQ6aI-1">
          <mxGeometry x="570" y="40" width="140" height="40" as="geometry" />
        </mxCell>
        <mxCell id="EsVAypqveaLoAmLeQ6aI-12" value="인증 분석" style="swimlane;whiteSpace=wrap;html=1;" vertex="1" parent="1">
          <mxGeometry x="20" y="-500" width="1060" height="110" as="geometry">
            <mxRectangle x="20" y="-480" width="120" height="30" as="alternateBounds" />
          </mxGeometry>
        </mxCell>
        <mxCell id="EsVAypqveaLoAmLeQ6aI-13" value="인증 분석 의뢰 내역&lt;br&gt;보여 드리겠습니다." style="shape=hexagon;perimeter=hexagonPerimeter2;whiteSpace=wrap;html=1;fixedSize=1;" vertex="1" parent="EsVAypqveaLoAmLeQ6aI-12">
          <mxGeometry x="340" y="30" width="190" height="60" as="geometry" />
        </mxCell>
        <mxCell id="EsVAypqveaLoAmLeQ6aI-40" style="edgeStyle=orthogonalEdgeStyle;rounded=0;orthogonalLoop=1;jettySize=auto;html=1;exitX=1;exitY=0.5;exitDx=0;exitDy=0;entryX=0;entryY=0.5;entryDx=0;entryDy=0;" edge="1" parent="EsVAypqveaLoAmLeQ6aI-12" source="EsVAypqveaLoAmLeQ6aI-20" target="EsVAypqveaLoAmLeQ6aI-13">
          <mxGeometry relative="1" as="geometry" />
        </mxCell>
        <mxCell id="EsVAypqveaLoAmLeQ6aI-20" value="인증 분석 내역 보여줘" style="whiteSpace=wrap;html=1;rounded=1;shadow=1;labelBackgroundColor=none;strokeWidth=1;fontFamily=Verdana;fontSize=12;align=center;fontStyle=1" vertex="1" parent="EsVAypqveaLoAmLeQ6aI-12">
          <mxGeometry x="100" y="30" width="140" height="60" as="geometry" />
        </mxCell>
        <mxCell id="EsVAypqveaLoAmLeQ6aI-23" value="견적서" style="swimlane;whiteSpace=wrap;html=1;" vertex="1" parent="1">
          <mxGeometry x="20" y="-370" width="1060" height="270" as="geometry">
            <mxRectangle x="20" y="-480" width="120" height="30" as="alternateBounds" />
          </mxGeometry>
        </mxCell>
        <mxCell id="EsVAypqveaLoAmLeQ6aI-34" style="edgeStyle=orthogonalEdgeStyle;rounded=0;orthogonalLoop=1;jettySize=auto;html=1;exitX=1;exitY=0.5;exitDx=0;exitDy=0;entryX=0;entryY=0.5;entryDx=0;entryDy=0;" edge="1" parent="EsVAypqveaLoAmLeQ6aI-23" source="EsVAypqveaLoAmLeQ6aI-24" target="EsVAypqveaLoAmLeQ6aI-33">
          <mxGeometry relative="1" as="geometry" />
        </mxCell>
        <mxCell id="EsVAypqveaLoAmLeQ6aI-24" value="어떤 견적서를 &lt;br&gt;요청하고 싶으신가요?" style="shape=hexagon;perimeter=hexagonPerimeter2;whiteSpace=wrap;html=1;fixedSize=1;size=10;" vertex="1" parent="EsVAypqveaLoAmLeQ6aI-23">
          <mxGeometry x="340" y="40" width="190" height="60" as="geometry" />
        </mxCell>
        <mxCell id="EsVAypqveaLoAmLeQ6aI-35" style="edgeStyle=orthogonalEdgeStyle;rounded=0;orthogonalLoop=1;jettySize=auto;html=1;exitX=1;exitY=0.5;exitDx=0;exitDy=0;entryX=0;entryY=0.5;entryDx=0;entryDy=0;" edge="1" parent="EsVAypqveaLoAmLeQ6aI-23" source="EsVAypqveaLoAmLeQ6aI-26" target="EsVAypqveaLoAmLeQ6aI-24">
          <mxGeometry relative="1" as="geometry" />
        </mxCell>
        <mxCell id="EsVAypqveaLoAmLeQ6aI-26" value="견적서 작성(요청)&lt;br&gt;하고 싶어" style="whiteSpace=wrap;html=1;rounded=1;shadow=1;labelBackgroundColor=none;strokeWidth=1;fontFamily=Verdana;fontSize=12;align=center;fontStyle=1" vertex="1" parent="EsVAypqveaLoAmLeQ6aI-23">
          <mxGeometry x="100" y="40" width="140" height="60" as="geometry" />
        </mxCell>
        <mxCell id="EsVAypqveaLoAmLeQ6aI-31" style="edgeStyle=orthogonalEdgeStyle;rounded=0;orthogonalLoop=1;jettySize=auto;html=1;exitX=1;exitY=0.5;exitDx=0;exitDy=0;" edge="1" parent="EsVAypqveaLoAmLeQ6aI-23" source="EsVAypqveaLoAmLeQ6aI-27" target="EsVAypqveaLoAmLeQ6aI-28">
          <mxGeometry relative="1" as="geometry" />
        </mxCell>
        <mxCell id="EsVAypqveaLoAmLeQ6aI-27" value="견적서 제출 어떻게 해?" style="whiteSpace=wrap;html=1;rounded=1;shadow=1;labelBackgroundColor=none;strokeWidth=1;fontFamily=Verdana;fontSize=12;align=center;fontStyle=1" vertex="1" parent="EsVAypqveaLoAmLeQ6aI-23">
          <mxGeometry x="100" y="140" width="140" height="60" as="geometry" />
        </mxCell>
        <mxCell id="EsVAypqveaLoAmLeQ6aI-41" style="edgeStyle=orthogonalEdgeStyle;rounded=0;orthogonalLoop=1;jettySize=auto;html=1;exitX=1;exitY=0.5;exitDx=0;exitDy=0;" edge="1" parent="EsVAypqveaLoAmLeQ6aI-23" source="EsVAypqveaLoAmLeQ6aI-28" target="EsVAypqveaLoAmLeQ6aI-32">
          <mxGeometry relative="1" as="geometry" />
        </mxCell>
        <mxCell id="EsVAypqveaLoAmLeQ6aI-28" value="견적서 제출은 요청이 들어오거나&lt;br&gt;공개 요청 현황에서 제출할 수&lt;br&gt;있습니다." style="shape=hexagon;perimeter=hexagonPerimeter2;whiteSpace=wrap;html=1;fixedSize=1;size=10;" vertex="1" parent="EsVAypqveaLoAmLeQ6aI-23">
          <mxGeometry x="340" y="140" width="190" height="60" as="geometry" />
        </mxCell>
        <mxCell id="EsVAypqveaLoAmLeQ6aI-32" value="&lt;ol&gt;&lt;li&gt;공개 요청 현황&lt;/li&gt;&lt;/ol&gt;" style="text;strokeColor=none;fillColor=none;html=1;whiteSpace=wrap;verticalAlign=middle;overflow=hidden;align=left;spacing=0;spacingLeft=-21;" vertex="1" parent="EsVAypqveaLoAmLeQ6aI-23">
          <mxGeometry x="580" y="150" width="120" height="40" as="geometry" />
        </mxCell>
        <mxCell id="EsVAypqveaLoAmLeQ6aI-43" style="edgeStyle=orthogonalEdgeStyle;rounded=0;orthogonalLoop=1;jettySize=auto;html=1;exitX=1;exitY=0.5;exitDx=0;exitDy=0;entryX=0;entryY=0.5;entryDx=0;entryDy=0;" edge="1" parent="EsVAypqveaLoAmLeQ6aI-23" source="EsVAypqveaLoAmLeQ6aI-33" target="EsVAypqveaLoAmLeQ6aI-42">
          <mxGeometry relative="1" as="geometry" />
        </mxCell>
        <mxCell id="EsVAypqveaLoAmLeQ6aI-33" value="&lt;ol&gt;&lt;li&gt;원료 소재&lt;/li&gt;&lt;li&gt;시설장비&lt;/li&gt;&lt;li&gt;전문 코디네이션&lt;/li&gt;&lt;li&gt;인증분석&lt;/li&gt;&lt;li&gt;교육 지원(제거)&lt;/li&gt;&lt;/ol&gt;" style="text;strokeColor=none;fillColor=none;html=1;whiteSpace=wrap;verticalAlign=middle;overflow=hidden;align=left;spacing=0;spacingLeft=-21;" vertex="1" parent="EsVAypqveaLoAmLeQ6aI-23">
          <mxGeometry x="580" y="25" width="120" height="90" as="geometry" />
        </mxCell>
        <mxCell id="EsVAypqveaLoAmLeQ6aI-51" style="edgeStyle=orthogonalEdgeStyle;rounded=0;orthogonalLoop=1;jettySize=auto;html=1;exitX=1;exitY=0.5;exitDx=0;exitDy=0;entryX=0;entryY=0.5;entryDx=0;entryDy=0;" edge="1" parent="EsVAypqveaLoAmLeQ6aI-23" source="EsVAypqveaLoAmLeQ6aI-42" target="EsVAypqveaLoAmLeQ6aI-50">
          <mxGeometry relative="1" as="geometry" />
        </mxCell>
        <mxCell id="EsVAypqveaLoAmLeQ6aI-42" value="견적서 요청은 업체를 지정하여&lt;br&gt;작성하실 수 있고, 공개 요청&lt;br&gt;하실 수 있습니다." style="shape=hexagon;perimeter=hexagonPerimeter2;whiteSpace=wrap;html=1;fixedSize=1;size=10;" vertex="1" parent="EsVAypqveaLoAmLeQ6aI-23">
          <mxGeometry x="730" y="40" width="190" height="60" as="geometry" />
        </mxCell>
        <mxCell id="EsVAypqveaLoAmLeQ6aI-50" value="&lt;ol&gt;&lt;li&gt;(서비스)업체 검색&lt;/li&gt;&lt;li&gt;(서비스)공개 요청&lt;/li&gt;&lt;/ol&gt;" style="text;strokeColor=none;fillColor=none;html=1;whiteSpace=wrap;verticalAlign=middle;overflow=hidden;align=left;spacing=0;spacingLeft=-21;" vertex="1" parent="EsVAypqveaLoAmLeQ6aI-23">
          <mxGeometry x="940" y="25" width="120" height="90" as="geometry" />
        </mxCell>
      </root>
    </mxGraphModel>
  </diagram>
</mxfile>
